<svg width="1339" height="192" viewBox="0 0 1339 192" fill="none" xmlns="http://www.w3.org/2000/svg">
<path d="M1.39 189V55.89H38.38V189H1.39ZM0.850001 36.45V0.809993H39.46V36.45H0.850001ZM153.927 189L151.227 171.18V104.76C151.227 97.56 148.797 92.34 143.937 89.1C139.257 85.86 133.137 84.24 125.577 84.24C118.557 84.24 111.177 85.59 103.437 88.29C95.8773 90.99 89.3973 94.5 83.9973 98.82L66.7173 73.17C76.7973 65.79 86.7873 60.66 96.6873 57.78C106.587 54.72 117.297 53.19 128.817 53.19C147.357 53.19 161.847 57.78 172.287 66.96C182.727 76.14 187.947 88.74 187.947 104.76V189H153.927ZM115.317 191.7C105.597 191.7 96.8673 189.9 89.1273 186.3C81.3873 182.7 75.2673 177.57 70.7673 170.91C66.2673 164.07 64.0173 156.24 64.0173 147.42C64.0173 139.68 65.6373 133.02 68.8773 127.44C72.1173 121.86 76.4373 117.54 81.8373 114.48C86.1573 111.96 91.0173 110.16 96.4173 109.08C101.817 108 107.487 107.46 113.427 107.46H154.197V134.73H118.827C116.307 134.73 113.967 135 111.807 135.54C109.647 135.9 107.667 136.71 105.867 137.97C104.427 139.05 103.257 140.4 102.357 142.02C101.637 143.64 101.277 145.44 101.277 147.42C101.277 151.92 102.987 155.52 106.407 158.22C110.007 160.74 114.777 162 120.717 162C126.297 162 131.337 160.83 135.837 158.49C140.517 156.15 144.207 152.91 146.907 148.77C149.787 144.63 151.227 139.95 151.227 134.73L159.867 154.98C156.987 164.34 153.117 171.72 148.257 177.12C143.577 182.34 138.357 186.12 132.597 188.46C127.017 190.62 121.257 191.7 115.317 191.7ZM217.607 189V55.89H254.597V90.72L246.497 98.28C247.757 89.1 249.917 81.54 252.977 75.6C256.217 69.66 259.997 65.07 264.317 61.83C268.637 58.59 273.137 56.34 277.817 55.08C282.497 53.82 287.087 53.19 291.587 53.19C298.067 53.19 304.457 54.45 310.757 56.97C317.237 59.31 322.907 63.63 327.767 69.93C332.627 76.23 336.047 85.14 338.027 96.66L315.617 105.84C318.317 92.16 322.457 81.54 328.037 73.98C333.617 66.24 339.827 60.84 346.667 57.78C353.687 54.72 360.707 53.19 367.727 53.19C379.247 53.19 388.607 55.71 395.807 60.75C403.007 65.61 408.317 72 411.737 79.92C415.157 87.66 416.867 95.76 416.867 104.22V189H379.607V113.13C379.607 106.83 378.797 101.61 377.177 97.47C375.557 93.33 373.217 90.27 370.157 88.29C367.097 86.31 363.317 85.32 358.817 85.32C353.597 85.32 349.277 86.67 345.857 89.37C342.437 92.07 339.827 96.21 338.027 101.79C336.407 107.37 335.597 114.48 335.597 123.12V189H298.607V112.86C298.607 103.68 296.897 96.84 293.477 92.34C290.057 87.66 285.197 85.32 278.897 85.32C273.497 85.32 268.997 86.76 265.397 89.64C261.797 92.34 259.097 96.48 257.297 102.06C255.497 107.46 254.597 114.48 254.597 123.12V189H217.607ZM432.164 189L509.114 0.809993H537.734L614.684 189H572.564L523.694 58.05L474.284 189H432.164ZM485.084 154.71L497.234 120.15H549.884L562.304 154.71H485.084ZM620.502 189L665.052 121.77L620.502 55.89H664.242L689.892 97.74L715.812 55.89H759.282L714.462 121.77L759.282 189H715.812L689.892 146.07L663.972 189H620.502ZM853.196 191.7C847.256 191.7 841.226 190.53 835.106 188.19C829.166 185.85 823.766 181.62 818.906 175.5C814.226 169.2 810.716 160.29 808.376 148.77L816.476 154.71V189H779.756V0.809993H816.476V90.72L809.456 94.5C811.076 84.6 814.046 76.68 818.366 70.74C822.686 64.62 827.906 60.21 834.026 57.51C840.146 54.63 846.536 53.19 853.196 53.19C863.456 53.19 872.726 55.89 881.006 61.29C889.466 66.69 896.216 74.52 901.256 84.78C906.296 95.04 908.816 107.55 908.816 122.31C908.816 135.63 906.566 147.51 902.066 157.95C897.746 168.39 891.446 176.67 883.166 182.79C874.886 188.73 864.896 191.7 853.196 191.7ZM842.396 157.68C848.336 157.68 853.466 156.33 857.786 153.63C862.286 150.75 865.706 146.7 868.046 141.48C870.386 136.08 871.556 129.69 871.556 122.31C871.556 114.93 870.386 108.63 868.046 103.41C865.706 98.19 862.286 94.14 857.786 91.26C853.466 88.38 848.336 86.94 842.396 86.94C836.456 86.94 831.236 88.47 826.736 91.53C822.416 94.41 819.086 98.46 816.746 103.68C814.406 108.9 813.236 115.11 813.236 122.31C813.236 129.51 814.406 135.81 816.746 141.21C819.086 146.43 822.416 150.48 826.736 153.36C831.236 156.24 836.456 157.68 842.396 157.68ZM933.74 189V0.809993H970.73V86.67L965.33 86.94C967.67 78.48 971.09 71.82 975.59 66.96C980.27 61.92 985.58 58.41 991.52 56.43C997.46 54.27 1003.4 53.19 1009.34 53.19C1024.64 53.19 1036.52 57.51 1044.98 66.15C1053.62 74.61 1057.94 86.31 1057.94 101.25V189H1020.68V115.02C1020.68 104.76 1018.79 97.29 1015.01 92.61C1011.41 87.75 1005.65 85.32 997.73 85.32C988.73 85.32 981.98 88.65 977.48 95.31C972.98 101.79 970.73 112.05 970.73 126.09V189H933.74ZM1076.65 189L1121.2 121.77L1076.65 55.89H1120.39L1146.04 97.74L1171.96 55.89H1215.43L1170.61 121.77L1215.43 189H1171.96L1146.04 146.07L1120.12 189H1076.65ZM1282.62 191.7C1272.54 191.7 1263.72 190.26 1256.16 187.38C1248.6 184.5 1242.3 180.99 1237.26 176.85C1232.22 172.53 1228.08 168.57 1224.84 164.97L1250.22 142.83C1253.28 147.33 1257.42 151.65 1262.64 155.79C1268.04 159.93 1274.79 162 1282.89 162C1288.83 162 1293.42 160.83 1296.66 158.49C1300.08 156.15 1301.79 153.45 1301.79 150.39C1301.79 147.51 1300.71 145.26 1298.55 143.64C1296.39 141.84 1293.51 140.31 1289.91 139.05C1286.31 137.79 1282.26 136.53 1277.76 135.27C1272.72 134.01 1267.5 132.48 1262.1 130.68C1256.7 128.7 1251.66 126.18 1246.98 123.12C1242.3 120.06 1238.52 116.19 1235.64 111.51C1232.76 106.65 1231.32 100.62 1231.32 93.42C1231.32 81.36 1236 71.64 1245.36 64.26C1254.9 56.88 1267.32 53.19 1282.62 53.19C1293.42 53.19 1303.23 55.26 1312.05 59.4C1320.87 63.54 1327.89 69.57 1333.11 77.49L1310.16 95.58C1306.92 90.9 1302.78 87.3 1297.74 84.78C1292.7 82.08 1287.39 80.73 1281.81 80.73C1277.13 80.73 1273.26 81.63 1270.2 83.43C1267.32 85.05 1265.88 87.21 1265.88 89.91C1265.88 91.89 1266.6 93.6 1268.04 95.04C1269.48 96.3 1271.82 97.47 1275.06 98.55C1278.3 99.63 1282.71 100.89 1288.29 102.33C1293.51 103.59 1299 105.12 1304.76 106.92C1310.52 108.72 1315.92 111.24 1320.96 114.48C1326.18 117.54 1330.32 121.68 1333.38 126.9C1336.62 131.94 1338.24 138.33 1338.24 146.07C1338.24 155.07 1335.9 163.08 1331.22 170.1C1326.72 176.94 1320.24 182.25 1311.78 186.03C1303.5 189.81 1293.78 191.7 1282.62 191.7Z" fill="#FFFFE3"/>
</svg>
